# xmcd
#
# Track frame offsets: 
#        150
#        14515
#        30478
#        50102
#        65722
#        82263
#        97042
#        109481
#        125294
#        141987
#        157754
#        171872
#
# Disc length: 2485 seconds
#
# Revision: 1
# Processed by: cddbd v1.5.2PL0 Copyright (c) Steve Scherf et al.
# Submitted via: ExactAudioCopy v0.95a4
#
DISCID=ab09b30c
DTITLE=Chris Lane - Girl Problems
DYEAR=2016
DGENRE=Country
TTITLE0=Fix
TTITLE1=For Her
TTITLE2=Let Me Love You
TTITLE3=Who's It Gonna Be
TTITLE4=Back to Me
TTITLE5=Maybe
TTITLE6=Her Own Kind of Beautiful
TTITLE7=All The Time
TTITLE8=Circles (Featuring MacKenzie Porter) 
TTITLE9=Saturday Night
TTITLE10=All About You
TTITLE11=Girl Problems
EXTD=YEAR: 2016
EXTT0=
EXTT1=
EXTT2=
EXTT3=
EXTT4=
EXTT5=
EXTT6=
EXTT7=
EXTT8=
EXTT9=
EXTT10=
EXTT11=
PLAYORDER=
